<svg id="Iconly_Light-outline_Arrow_-_Up" data-name="Iconly/Light-outline/Arrow - Up" xmlns="http://www.w3.org/2000/svg" width="24" height="24" viewBox="0 0 24 24">
  <g id="Arrow_-_Up" data-name="Arrow - Up" transform="translate(19.5 21) rotate(180)">
    <path id="Arrow_-_Up-2" data-name="Arrow - Up" d="M7.273,17.969h0l-.011,0-.01,0-.006,0-.014,0h0a.832.832,0,0,1-.315-.195h0l-6.67-6.6A.809.809,0,0,1,.245,10a.839.839,0,0,1,1.081-.077L1.418,10,6.67,15.2V.818A.831.831,0,0,1,8.323.707L8.33.818V15.2L13.581,10a.839.839,0,0,1,1.175,0,.809.809,0,0,1,.083,1.065l-.08.092-6.669,6.6A.835.835,0,0,1,7.5,18,.844.844,0,0,1,7.273,17.969Z" fill="#fff"/>
  </g>
</svg>
